<svg xmlns="http://www.w3.org/2000/svg" xmlns:xlink="http://www.w3.org/1999/xlink" width="516" height="900" viewBox="0 0 516 900">
  <defs>
    <clipPath id="clip-path">
      <rect id="ian-dooley-hpTH5b6mo2s-unsplash" width="516" height="900" fill="none" stroke="#707070" stroke-width="1"/>
    </clipPath>
    <clipPath id="clip-path-2">
      <path id="Path_69356" data-name="Path 69356" d="M167.15,336.75s4.473,11.034,3.707,20.746-3.707,25.466-1.582,32.04,6.833,32.707,6.833,32.707-2.36,2.62-2.36,4.943.791,14.173.791,14.173h1.569l1.582-11.813a4.634,4.634,0,0,1,2.62,3.151c.259,2.1,1.05,8.143,2.1,8.4a19.217,19.217,0,0,0,3.942,0s1.569-1.05.791-1.841a6.611,6.611,0,0,1-2.1-3.929c-.531-2.372-1.841-5.783-1.841-10.243v-39.54c0-11.553,1.569-20.487,2.1-30.73a97.045,97.045,0,0,0-.531-17.3Z" transform="translate(-167.15 -336.75)" fill="#fff" stroke="#263238" stroke-linecap="round" stroke-linejoin="round" stroke-width="1"/>
    </clipPath>
    <clipPath id="clip-path-3">
      <path id="Path_69363" data-name="Path 69363" d="M195.131,338.175s2.471,7.636,2.026,11.232S185.024,364,183.677,370.523s-4.5,21.339-5.61,27.629-2.051,10-3.954,11.689-5.4.136-8.044,3.138-10.379,12.233-10.379,12.233l1.075.951,9.082-5.548s4.189,1.594,4.275,4.065a65.948,65.948,0,0,0,1.433,10.206c.556,2.063,4.374,6.1,6.821,6.7s2.385-2.471,1.409-3.052-2.372-3.707-2.15-7.562,1.767-15.2,3.274-17.818,14.9-30.891,21.858-39.935,9.205-17.3,10.787-19.548,1.569-7.636,1.569-10.552a34.046,34.046,0,0,0-.445-5.387Z" transform="translate(-155.69 -337.73)" fill="#fff" stroke="#263238" stroke-linecap="round" stroke-linejoin="round" stroke-width="1"/>
    </clipPath>
  </defs>
  <g id="Mask_Group_15" data-name="Mask Group 15" clip-path="url(#clip-path)">
    <g id="Departing-bro_1_" data-name="Departing-bro (1)" transform="translate(-4.362 433.253)">
      <g id="freepik--Clouds--inject-4" transform="translate(78.071 174.253)">
        <path id="Path_69330" data-name="Path 69330" d="M257.576,188.32c-5.153-2.8-7.5-.47-9.366-2.8s5.153-8.439-8.909-14.531c0,0-.939-13.11-20.141-13.592S205.111,170.5,199.909,173.8s-6.561-1.878-11.714,1.4-2.817,9.885-7.031,10.775-9.885-4.213-14.988-.927-5.153,6.079-7.5,6.079-7.031-1.866-9.885,0-6.092,4.226-6.092,4.226H261.32S262.728,191.125,257.576,188.32Z" transform="translate(-61.581 -157.38)" fill="#9cd7f5"/>
        <path id="Path_69331" data-name="Path 69331" d="M462.342,268.278c-7.636-4.164-11.121-.692-13.888-4.164s7.636-12.492-13.184-21.512c0,0-1.384-19.436-29.853-20.128S384.6,241.9,377,246.766s-9.712-2.78-17.3,2.076-4.164,14.58-10.416,15.964-14.568-6.24-22.241-1.384-7.636,9.02-11.121,9.02-10.416-2.78-14.58,0-9.02,6.252-9.02,6.252H467.89S469.978,272.442,462.342,268.278Z" transform="translate(-26.327 -142.046)" fill="#9cd7f5"/>
        <path id="Path_69332" data-name="Path 69332" d="M247.109,329.25c-7.636-4.164-11.121-.692-13.888-4.164s7.636-12.492-13.184-21.525c0,0-1.384-19.424-29.84-20.128s-20.833,19.436-28.419,24.3-9.724-2.78-17.361,2.076-4.164,14.58-10.4,15.964-14.58-6.24-22.241-1.384-7.636,9.02-11.121,9.02-10.4-2.78-14.568,0-9.032,6.252-9.032,6.252H252.657S254.745,333.414,247.109,329.25Z" transform="translate(-77.05 -127.683)" fill="#9cd7f5"/>
        <g id="Group_24615" data-name="Group 24615" transform="translate(0 0)" opacity="0.4">
          <path id="Path_69333" data-name="Path 69333" d="M257.576,188.32c-5.153-2.8-7.5-.47-9.366-2.8s5.153-8.439-8.909-14.531c0,0-.939-13.11-20.141-13.592S205.111,170.5,199.909,173.8s-6.561-1.878-11.714,1.4-2.817,9.885-7.031,10.775-9.885-4.213-14.988-.927-5.153,6.079-7.5,6.079-7.031-1.866-9.885,0-6.092,4.226-6.092,4.226H261.32S262.728,191.125,257.576,188.32Z" transform="translate(-61.581 -157.38)" fill="#fff"/>
          <path id="Path_69334" data-name="Path 69334" d="M462.342,268.278c-7.636-4.164-11.121-.692-13.888-4.164s7.636-12.492-13.184-21.512c0,0-1.384-19.436-29.853-20.128S384.6,241.9,377,246.766s-9.712-2.78-17.3,2.076-4.164,14.58-10.416,15.964-14.568-6.24-22.241-1.384-7.636,9.02-11.121,9.02-10.416-2.78-14.58,0-9.02,6.252-9.02,6.252H467.89S469.978,272.442,462.342,268.278Z" transform="translate(-26.327 -142.046)" fill="#fff"/>
          <path id="Path_69335" data-name="Path 69335" d="M247.109,329.25c-7.636-4.164-11.121-.692-13.888-4.164s7.636-12.492-13.184-21.525c0,0-1.384-19.424-29.84-20.128s-20.833,19.436-28.419,24.3-9.724-2.78-17.361,2.076-4.164,14.58-10.4,15.964-14.58-6.24-22.241-1.384-7.636,9.02-11.121,9.02-10.4-2.78-14.568,0-9.032,6.252-9.032,6.252H252.657S254.745,333.414,247.109,329.25Z" transform="translate(-77.05 -127.683)" fill="#fff"/>
        </g>
      </g>
      <g id="freepik--Airplane--inject-4" transform="translate(324.022 282.326)">
        <path id="Path_69336" data-name="Path 69336" d="M407.31,335.867s-19.412-3.336-29.4-14.976-63.227-74.323-63.227-74.323-9.984-3.88-30.508,0l24.4,97.614Z" transform="translate(-274.196 -244.844)" fill="#9cd7f5"/>
        <path id="Path_69337" data-name="Path 69337" d="M448.593,317.266S321.027,318.378,276.1,330.574V340s59.384,18.806,140.293,36.784a131.547,131.547,0,0,0,28.58,3.151h27.468V316.71Z" transform="translate(-276.1 -227.911)" fill="#9cd7f5"/>
        <g id="Group_24616" data-name="Group 24616" transform="translate(0 0.934)" opacity="0.3">
          <path id="Path_69338" data-name="Path 69338" d="M303.669,329.331c29.9-3.6,67.687-5.461,96.28-6.425-5.882-1.47-18.781-5.511-26.306-14.3-1.928-2.249-5.474-6.4-9.885-11.64-21.006,14.506-45.57,22.624-61.448,26.739Z" transform="translate(-269.924 -233.496)"/>
          <path id="Path_69339" data-name="Path 69339" d="M302.013,327.893c27.184-9.02,36.463-30,39.293-47.188l-29.161-34.313a20.589,20.589,0,0,0-2.978-.791c.988,19.424-6.055,38.675-14.2,54.1Z" transform="translate(-271.654 -245.6)"/>
          <path id="Path_69340" data-name="Path 69340" d="M409.214,356.52c-22.031-2.582-95.143-15.606-126.454-21.24V326.63c-2.372.519-4.609,1.05-6.66,1.606v9.428h.111l.309.1h0l3.336,1.026h0l2.83.865h0c17.632,5.338,68.688,20.3,133.633,34.733a131.543,131.543,0,0,0,28.58,3.151h27.542v-20.3C456.3,357.978,428.329,358.769,409.214,356.52Z" transform="translate(-276.1 -226.507)"/>
          <path id="Path_69341" data-name="Path 69341" d="M303.436,338.126l49.907-2.212L318.4,327.03H299Z" transform="translate(-270.704 -226.413)"/>
        </g>
      </g>
      <g id="freepik--Window--inject-4" transform="translate(73.067 85.77)">
        <rect id="Rectangle_9354" data-name="Rectangle 9354" width="447.296" height="30.891" transform="translate(0 338.969)" fill="#263238" stroke="#263238" stroke-linecap="round" stroke-linejoin="round" stroke-width="1"/>
        <rect id="Rectangle_9355" data-name="Rectangle 9355" width="516" height="7.414" transform="translate(-68.704 225.291)" fill="#263238" stroke="#263238" stroke-linecap="round" stroke-linejoin="round" stroke-width="1"/>
        <line id="Line_239" data-name="Line 239" y2="338.561" transform="translate(55.603 17.706)" fill="none" stroke="#263238" stroke-linecap="round" stroke-linejoin="round" stroke-width="1"/>
        <line id="Line_240" data-name="Line 240" y2="338.561" transform="translate(224.883 17.706)" fill="none" stroke="#263238" stroke-linecap="round" stroke-linejoin="round" stroke-width="1"/>
        <line id="Line_241" data-name="Line 241" y2="338.561" transform="translate(394.164 17.706)" fill="none" stroke="#263238" stroke-linecap="round" stroke-linejoin="round" stroke-width="1"/>
        <path id="Path_69342" data-name="Path 69342" d="M76.51,171.133c171.99-.144,344.715-.144,516,0" transform="translate(-145.214 -65.69)" fill="none" stroke="#263238" stroke-linecap="round" stroke-linejoin="round" stroke-width="1"/>
        <line id="Line_242" data-name="Line 242" x2="3.88" y2="5.523" transform="translate(105.609 157.048)" fill="none" stroke="#263238" stroke-width="1"/>
        <line id="Line_243" data-name="Line 243" x2="30.928" y2="44.038" transform="translate(69.615 105.806)" fill="none" stroke="#263238" stroke-width="1"/>
        <line id="Line_244" data-name="Line 244" x2="3.88" y2="5.523" transform="translate(276.594 286.133)" fill="none" stroke="#263238" stroke-width="1"/>
        <line id="Line_245" data-name="Line 245" x2="30.928" y2="44.038" transform="translate(240.601 234.892)" fill="none" stroke="#263238" stroke-width="1"/>
        <line id="Line_246" data-name="Line 246" x2="3.892" y2="5.536" transform="translate(290.779 333.433)" fill="none" stroke="#263238" stroke-width="1"/>
        <line id="Line_247" data-name="Line 247" x2="30.94" y2="44.038" transform="translate(254.786 282.192)" fill="none" stroke="#263238" stroke-width="1"/>
        <line id="Line_248" data-name="Line 248" x2="3.88" y2="5.523" transform="translate(150.215 77.301)" fill="none" stroke="#263238" stroke-width="1"/>
        <line id="Line_249" data-name="Line 249" x2="30.928" y2="44.038" transform="translate(114.221 26.059)" fill="none" stroke="#263238" stroke-width="1"/>
        <line id="Line_250" data-name="Line 250" x2="3.88" y2="5.536" transform="translate(296.76 51.241)" fill="none" stroke="#263238" stroke-width="1"/>
        <line id="Line_251" data-name="Line 251" x2="30.928" y2="44.038" transform="translate(260.766)" fill="none" stroke="#263238" stroke-width="1"/>
        <line id="Line_252" data-name="Line 252" x2="3.88" y2="5.523" transform="translate(436.089 281.401)" fill="none" stroke="#263238" stroke-width="1"/>
        <line id="Line_253" data-name="Line 253" x2="30.928" y2="44.038" transform="translate(400.095 230.16)" fill="none" stroke="#263238" stroke-width="1"/>
        <line id="Line_254" data-name="Line 254" x2="3.88" y2="5.536" transform="translate(98.17 284.774)" fill="none" stroke="#263238" stroke-width="1"/>
        <line id="Line_255" data-name="Line 255" x2="30.94" y2="44.038" transform="translate(62.177 233.533)" fill="none" stroke="#263238" stroke-width="1"/>
        <line id="Line_256" data-name="Line 256" x2="3.88" y2="5.536" transform="translate(125.885 58.371)" fill="none" stroke="#263238" stroke-width="1"/>
        <line id="Line_257" data-name="Line 257" x2="30.928" y2="44.038" transform="translate(89.892 7.13)" fill="none" stroke="#263238" stroke-width="1"/>
        <line id="Line_258" data-name="Line 258" x2="3.88" y2="5.536" transform="translate(326.971 198.404)" fill="none" stroke="#263238" stroke-width="1"/>
        <line id="Line_259" data-name="Line 259" x2="30.94" y2="44.038" transform="translate(290.977 147.163)" fill="none" stroke="#263238" stroke-width="1"/>
      </g>
      <g id="freepik--Plants--inject-4" transform="translate(72.717 326.6)">
        <path id="Path_69343" data-name="Path 69343" d="M76.44,298.153c1.767.778,6.178.68,6.178.68s-.927-2.842-1.013-3.015c-.951-2-3.966-5.288-6.413-4.943a2.928,2.928,0,0,0-2.36,3.707,6.178,6.178,0,0,0,3.608,3.571Z" transform="translate(-72.717 -278.279)" fill="#263238"/>
        <path id="Path_69344" data-name="Path 69344" d="M133.262,285.772c-2.471-.272-5.387,3.1-6.277,5.116-.086.173-.989,3.04-.939,3.04h0c-.457.531-.951,1.1-1.483,1.742-.964,1.236-2.039,2.471-3.114,4.065a52.815,52.815,0,0,0-3.225,5.14,38.427,38.427,0,0,0-2.755,6.178.173.173,0,0,1,0,.074v-2.9c-.284-2.187-2.113-6.252-4.547-6.709a2.928,2.928,0,0,0-3.373,2.755,6.079,6.079,0,0,0,2.348,4.584c1.384,1.236,5.239,2.471,5.548,2.533a50.83,50.83,0,0,0-1.656,6.759c-.235,1.322-.432,2.657-.618,4v-1.236c-.284-2.187-2.125-6.252-4.559-6.709a2.928,2.928,0,0,0-3.386,2.706,6.178,6.178,0,0,0,2.348,4.584,19.635,19.635,0,0,0,5.387,2.471c-.074.519-.136,1.026-.2,1.545-.3,2.471-.581,4.942-.939,7.414-.124.853-.284,1.68-.432,2.471v-1.1c-.284-2.187-2.125-6.252-4.559-6.7a2.928,2.928,0,0,0-3.373,2.755,6.178,6.178,0,0,0,2.348,4.572,18.535,18.535,0,0,0,5.227,2.471c-.185.853-.358,1.705-.568,2.471-.161.556-.272,1.112-.47,1.656l-.519,1.631c-.371,1.013-.754,2.076-1.137,3.064l-.791,1.989c.124-.84.358-2.471.358-2.657a11.293,11.293,0,0,0-1.52-5.523,3.891,3.891,0,0,0,0-.655,2.928,2.928,0,0,0-3.571-2.471c-2.4.643-3.9,4.831-4.028,7.043,0,.136.086,1.545.148,2.471-.111-.519-.222-1.026-.358-1.557-.247-1.063-.531-2.113-.828-3.237-.161-.544-.334-1.087-.494-1.631s-.383-1.112-.581-1.68c-.47-1.236-1.013-2.57-1.594-3.855a19.288,19.288,0,0,0,5.523-2.076,6.1,6.1,0,0,0,2.607-4.349,2.928,2.928,0,0,0-3.163-3c-2.471.272-4.6,4.189-5.041,6.351,0,.136-.173,1.718-.235,2.595-.346-.766-.692-1.532-1.075-2.3-1.1-2.224-2.286-4.424-3.447-6.635-.358-.667-.717-1.347-1.063-2.026A20.386,20.386,0,0,0,94.9,320.9a6.178,6.178,0,0,0,2.694-4.4,2.928,2.928,0,0,0-3.163-2.99c-2.471.259-4.6,4.189-5.041,6.351,0,.161-.235,2.471-.259,3.027-.778-1.5-1.532-2.978-2.224-4.485a51.017,51.017,0,0,1-2.409-6.24,20.549,20.549,0,0,0,5.746-2.113,6.178,6.178,0,0,0,2.681-4.4,2.916,2.916,0,0,0-3.163-2.99c-2.471.26-4.584,4.176-5.029,6.339,0,.173-.259,2.632-.272,3.077a1.453,1.453,0,0,0-.124-.371,36.908,36.908,0,0,1-1.236-6.586c-.148-1.236-.21-2.409-.247-3.559a19.46,19.46,0,0,0,5.807-1.458,6.067,6.067,0,0,0,3.151-4.065A2.928,2.928,0,0,0,89,292.7c-2.471,0-5.029,3.707-5.709,5.758,0,.111-.284,1.322-.457,2.2V299.1c0-1.866.124-3.583.247-5.1.074-.853.148-1.631.235-2.36a19.5,19.5,0,0,0,4.461-3.954,6.092,6.092,0,0,0,.914-5.066,2.928,2.928,0,0,0-4.028-1.656c-2.187,1.137-2.768,5.56-2.471,7.735,0,.185.865,3.077.9,3.052h0c-.086.692-.185,1.446-.272,2.261-.148,1.52-.309,3.237-.358,5.116a51.06,51.06,0,0,0,.148,6.067,39.158,39.158,0,0,0,1.124,6.685.789.789,0,0,1,0,.086c-.383-.618-1.532-2.286-1.631-2.471-1.446-1.668-5.227-4.053-7.5-3.077a2.916,2.916,0,0,0-1.236,4.152,6.178,6.178,0,0,0,4.485,2.533c1.841.26,5.721-.865,6.03-.951a49.425,49.425,0,0,0,2.348,6.5c.531,1.236,1.1,2.471,1.693,3.707-.346-.519-.667-.976-.717-1.038-1.446-1.668-5.227-4.04-7.5-3.077a2.928,2.928,0,0,0-1.236,4.164,6.178,6.178,0,0,0,4.485,2.471,19.647,19.647,0,0,0,5.857-.9l.692,1.409c1.124,2.224,2.249,4.448,3.3,6.672.358.778.692,1.557,1.026,2.348-.309-.47-.581-.853-.63-.9-1.433-1.668-5.214-4.053-7.488-3.089a2.928,2.928,0,0,0-1.236,4.164,6.091,6.091,0,0,0,4.485,2.471,18.3,18.3,0,0,0,5.7-.853c.321.816.643,1.619.914,2.471.173.556.383,1.075.531,1.631s.3,1.1.457,1.643c.247,1.063.519,2.15.741,3.188.161.717.3,1.409.445,2.1a20.056,20.056,0,0,0-1.236-2.409c-1.174-1.878-4.535-4.794-6.932-4.189a2.928,2.928,0,0,0-1.915,3.917,6.079,6.079,0,0,0,4.016,3.25,20.227,20.227,0,0,0,6.042,0c.222,1.149.432,2.261.618,3.324.655,3.707,1.05,6.759,1.236,8.921a8.755,8.755,0,0,0,.124,1.05H92.289l2.718,53.033H107.7l2.718-53.033h-6.882l.148-.321c.951-1.989,2.274-4.831,3.707-8.316.457-1.112.914-2.286,1.384-3.509a20.215,20.215,0,0,0,6.042.47,6.178,6.178,0,0,0,4.275-2.867,2.941,2.941,0,0,0-1.606-4.053c-2.348-.778-5.931,1.878-7.241,3.707-.074.111-.791,1.334-1.236,2.125.185-.507.371-.988.556-1.507.371-1.013.717-2.051,1.087-3.151.161-.544.334-1.087.494-1.643s.3-1.137.445-1.705c.309-1.347.568-2.718.8-4.1a19.509,19.509,0,0,0,5.733,1.322,6.178,6.178,0,0,0,4.671-2.187,2.929,2.929,0,0,0-.989-4.238c-2.2-1.137-6.178.951-7.71,2.471-.086.1-1.087,1.347-1.619,2.039.124-.84.259-1.668.371-2.471.3-2.471.531-4.942.778-7.414.074-.766.148-1.52.235-2.286a20.276,20.276,0,0,0,5.931,1.4,6.079,6.079,0,0,0,4.658-2.187,2.916,2.916,0,0,0-.976-4.238c-2.2-1.137-6.178.951-7.71,2.471-.111.124-1.545,1.915-1.891,2.385.173-1.668.371-3.336.618-4.943a51.709,51.709,0,0,1,1.433-6.524c.148,0,4.065,1.532,5.968,1.4a6.079,6.079,0,0,0,4.658-2.187,2.916,2.916,0,0,0-.989-4.238c-2.187-1.137-6.178.951-7.7,2.471-.124.124-1.668,2.051-1.915,2.471a.53.53,0,0,1,.1-.371,37.351,37.351,0,0,1,2.582-6.178c.568-1.1,1.161-2.113,1.767-3.1a19.273,19.273,0,0,0,5.647,1.989,6.178,6.178,0,0,0,4.943-1.656,2.916,2.916,0,0,0-.519-4.325c-2.051-1.372-6.178.272-7.933,1.656-.086.074-.964.939-1.582,1.582.272-.445.556-.9.828-1.31,1.038-1.569,2.088-2.928,3.015-4.127.544-.68,1.038-1.236,1.507-1.841a19.6,19.6,0,0,0,5.906-.84,6.178,6.178,0,0,0,3.559-3.707,2.916,2.916,0,0,0-2.508-3.732Zm-27.184,66.069c-1.483,3.423-2.854,6.178-3.843,8.155l-.531,1.063h-.272a9.429,9.429,0,0,0-.161-1.236c-.3-2.175-.778-5.288-1.507-8.983-.235-1.161-.494-2.409-.791-3.707a29.34,29.34,0,0,0,3.386-1.594,21.859,21.859,0,0,0,4.943,3.188c-.408,1.087-.84,2.138-1.273,3.114Z" transform="translate(-72.663 -280.676)" fill="#263238"/>
        <path id="Path_69345" data-name="Path 69345" d="M112.4,299.628s.791-2.879.816-3.077c.309-2.187-.4-6.586-2.62-7.673a2.928,2.928,0,0,0-3.979,1.767,6.178,6.178,0,0,0,1.05,5.041C108.72,297.318,112.4,299.628,112.4,299.628Z" transform="translate(-64.765 -278.803)" fill="#263238"/>
      </g>
      <g id="freepik--Board--inject-4" transform="translate(271.755 132.316)">
        <rect id="Rectangle_9356" data-name="Rectangle 9356" width="233.533" height="139.625" rx="6" transform="translate(1.47)" fill="#263238" stroke="#263238" stroke-linecap="round" stroke-linejoin="round" stroke-width="1"/>
        <line id="Line_260" data-name="Line 260" x2="235.868" transform="translate(0 37.081)" fill="none" stroke="#fff" stroke-linecap="round" stroke-linejoin="round" stroke-width="1"/>
        <line id="Line_261" data-name="Line 261" x2="112.454" transform="translate(61.707 21.92)" fill="none" stroke="#fff" stroke-linecap="round" stroke-linejoin="round" stroke-width="2"/>
        <line id="Line_262" data-name="Line 262" y2="100.666" transform="translate(58.531 37.662)" fill="none" stroke="#fff" stroke-linecap="round" stroke-linejoin="round" stroke-width="1"/>
        <line id="Line_263" data-name="Line 263" y2="100.666" transform="translate(119.979 37.662)" fill="none" stroke="#fff" stroke-linecap="round" stroke-linejoin="round" stroke-width="1"/>
        <line id="Line_264" data-name="Line 264" y2="100.666" transform="translate(181.439 37.662)" fill="none" stroke="#fff" stroke-linecap="round" stroke-linejoin="round" stroke-width="1"/>
        <line id="Line_265" data-name="Line 265" x2="14.642" transform="translate(8.773 50.537)" fill="none" stroke="#fff" stroke-linecap="round" stroke-linejoin="round" stroke-width="1"/>
        <line id="Line_266" data-name="Line 266" x2="19.795" transform="translate(8.773 57.568)" fill="none" stroke="#fff" stroke-linecap="round" stroke-linejoin="round" stroke-width="1"/>
        <line id="Line_267" data-name="Line 267" x2="14.642" transform="translate(8.773 64.586)" fill="none" stroke="#fff" stroke-linecap="round" stroke-linejoin="round" stroke-width="1"/>
        <line id="Line_268" data-name="Line 268" x2="26.133" transform="translate(8.773 71.604)" fill="none" stroke="#fff" stroke-linecap="round" stroke-linejoin="round" stroke-width="1"/>
        <line id="Line_269" data-name="Line 269" x2="14.642" transform="translate(8.773 78.635)" fill="none" stroke="#fff" stroke-linecap="round" stroke-linejoin="round" stroke-width="1"/>
        <line id="Line_270" data-name="Line 270" x2="19.436" transform="translate(8.773 85.653)" fill="none" stroke="#fff" stroke-linecap="round" stroke-linejoin="round" stroke-width="1"/>
        <line id="Line_271" data-name="Line 271" x2="14.642" transform="translate(8.773 92.684)" fill="none" stroke="#fff" stroke-linecap="round" stroke-linejoin="round" stroke-width="1"/>
        <line id="Line_272" data-name="Line 272" x2="30.718" transform="translate(8.773 99.702)" fill="none" stroke="#fff" stroke-linecap="round" stroke-linejoin="round" stroke-width="1"/>
        <line id="Line_273" data-name="Line 273" x2="14.642" transform="translate(8.773 106.721)" fill="none" stroke="#fff" stroke-linecap="round" stroke-linejoin="round" stroke-width="1"/>
        <line id="Line_274" data-name="Line 274" x2="20.499" transform="translate(8.773 113.751)" fill="none" stroke="#fff" stroke-linecap="round" stroke-linejoin="round" stroke-width="1"/>
        <line id="Line_275" data-name="Line 275" x2="14.642" transform="translate(8.773 120.77)" fill="none" stroke="#fff" stroke-linecap="round" stroke-linejoin="round" stroke-width="1"/>
        <line id="Line_276" data-name="Line 276" x2="14.642" transform="translate(8.773 127.801)" fill="none" stroke="#fff" stroke-linecap="round" stroke-linejoin="round" stroke-width="1"/>
        <line id="Line_277" data-name="Line 277" x2="14.63" transform="translate(71.53 50.537)" fill="none" stroke="#fff" stroke-linecap="round" stroke-linejoin="round" stroke-width="1"/>
        <line id="Line_278" data-name="Line 278" x2="19.782" transform="translate(71.53 57.568)" fill="none" stroke="#fff" stroke-linecap="round" stroke-linejoin="round" stroke-width="1"/>
        <line id="Line_279" data-name="Line 279" x2="14.63" transform="translate(71.53 64.586)" fill="none" stroke="#fff" stroke-linecap="round" stroke-linejoin="round" stroke-width="1"/>
        <line id="Line_280" data-name="Line 280" x2="26.133" transform="translate(71.53 71.604)" fill="none" stroke="#fff" stroke-linecap="round" stroke-linejoin="round" stroke-width="1"/>
        <line id="Line_281" data-name="Line 281" x2="14.63" transform="translate(71.53 78.635)" fill="none" stroke="#fff" stroke-linecap="round" stroke-linejoin="round" stroke-width="1"/>
        <line id="Line_282" data-name="Line 282" x2="19.436" transform="translate(71.53 85.653)" fill="none" stroke="#fff" stroke-linecap="round" stroke-linejoin="round" stroke-width="1"/>
        <line id="Line_283" data-name="Line 283" x2="14.63" transform="translate(71.53 92.684)" fill="none" stroke="#fff" stroke-linecap="round" stroke-linejoin="round" stroke-width="1"/>
        <line id="Line_284" data-name="Line 284" x2="30.718" transform="translate(71.53 99.702)" fill="none" stroke="#fff" stroke-linecap="round" stroke-linejoin="round" stroke-width="1"/>
        <line id="Line_285" data-name="Line 285" x2="14.63" transform="translate(71.53 106.721)" fill="none" stroke="#fff" stroke-linecap="round" stroke-linejoin="round" stroke-width="1"/>
        <line id="Line_286" data-name="Line 286" x2="20.487" transform="translate(71.53 113.751)" fill="none" stroke="#fff" stroke-linecap="round" stroke-linejoin="round" stroke-width="1"/>
        <line id="Line_287" data-name="Line 287" x2="14.63" transform="translate(71.53 120.77)" fill="none" stroke="#fff" stroke-linecap="round" stroke-linejoin="round" stroke-width="1"/>
        <line id="Line_288" data-name="Line 288" x2="14.63" transform="translate(71.53 127.801)" fill="none" stroke="#fff" stroke-linecap="round" stroke-linejoin="round" stroke-width="1"/>
        <line id="Line_289" data-name="Line 289" x2="14.63" transform="translate(134.275 50.537)" fill="none" stroke="#fff" stroke-linecap="round" stroke-linejoin="round" stroke-width="1"/>
        <line id="Line_290" data-name="Line 290" x2="19.795" transform="translate(134.275 57.568)" fill="none" stroke="#fff" stroke-linecap="round" stroke-linejoin="round" stroke-width="1"/>
        <line id="Line_291" data-name="Line 291" x2="14.63" transform="translate(134.275 64.586)" fill="none" stroke="#fff" stroke-linecap="round" stroke-linejoin="round" stroke-width="1"/>
        <line id="Line_292" data-name="Line 292" x2="26.133" transform="translate(134.275 71.604)" fill="none" stroke="#fff" stroke-linecap="round" stroke-linejoin="round" stroke-width="1"/>
        <line id="Line_293" data-name="Line 293" x2="14.63" transform="translate(134.275 78.635)" fill="none" stroke="#fff" stroke-linecap="round" stroke-linejoin="round" stroke-width="1"/>
        <line id="Line_294" data-name="Line 294" x2="19.436" transform="translate(134.275 85.653)" fill="none" stroke="#fff" stroke-linecap="round" stroke-linejoin="round" stroke-width="1"/>
        <line id="Line_295" data-name="Line 295" x2="14.63" transform="translate(134.275 92.684)" fill="none" stroke="#fff" stroke-linecap="round" stroke-linejoin="round" stroke-width="1"/>
        <line id="Line_296" data-name="Line 296" x2="30.718" transform="translate(134.275 99.702)" fill="none" stroke="#fff" stroke-linecap="round" stroke-linejoin="round" stroke-width="1"/>
        <line id="Line_297" data-name="Line 297" x2="14.63" transform="translate(134.275 106.721)" fill="none" stroke="#fff" stroke-linecap="round" stroke-linejoin="round" stroke-width="1"/>
        <line id="Line_298" data-name="Line 298" x2="20.499" transform="translate(134.275 113.751)" fill="none" stroke="#fff" stroke-linecap="round" stroke-linejoin="round" stroke-width="1"/>
        <line id="Line_299" data-name="Line 299" x2="14.63" transform="translate(134.275 120.77)" fill="none" stroke="#fff" stroke-linecap="round" stroke-linejoin="round" stroke-width="1"/>
        <line id="Line_300" data-name="Line 300" x2="14.63" transform="translate(134.275 127.801)" fill="none" stroke="#fff" stroke-linecap="round" stroke-linejoin="round" stroke-width="1"/>
        <line id="Line_301" data-name="Line 301" x2="14.642" transform="translate(197.02 50.537)" fill="none" stroke="#fff" stroke-linecap="round" stroke-linejoin="round" stroke-width="1"/>
        <line id="Line_302" data-name="Line 302" x2="19.795" transform="translate(197.02 57.568)" fill="none" stroke="#fff" stroke-linecap="round" stroke-linejoin="round" stroke-width="1"/>
        <line id="Line_303" data-name="Line 303" x2="14.642" transform="translate(197.02 64.586)" fill="none" stroke="#fff" stroke-linecap="round" stroke-linejoin="round" stroke-width="1"/>
        <line id="Line_304" data-name="Line 304" x2="26.133" transform="translate(197.02 71.604)" fill="none" stroke="#fff" stroke-linecap="round" stroke-linejoin="round" stroke-width="1"/>
        <line id="Line_305" data-name="Line 305" x2="14.642" transform="translate(197.02 78.635)" fill="none" stroke="#fff" stroke-linecap="round" stroke-linejoin="round" stroke-width="1"/>
        <line id="Line_306" data-name="Line 306" x2="19.436" transform="translate(197.02 85.653)" fill="none" stroke="#fff" stroke-linecap="round" stroke-linejoin="round" stroke-width="1"/>
        <line id="Line_307" data-name="Line 307" x2="14.642" transform="translate(197.02 92.684)" fill="none" stroke="#fff" stroke-linecap="round" stroke-linejoin="round" stroke-width="1"/>
        <line id="Line_308" data-name="Line 308" x2="30.718" transform="translate(197.02 99.702)" fill="none" stroke="#fff" stroke-linecap="round" stroke-linejoin="round" stroke-width="1"/>
        <line id="Line_309" data-name="Line 309" x2="14.642" transform="translate(197.02 106.721)" fill="none" stroke="#fff" stroke-linecap="round" stroke-linejoin="round" stroke-width="1"/>
        <line id="Line_310" data-name="Line 310" x2="20.499" transform="translate(197.02 113.751)" fill="none" stroke="#fff" stroke-linecap="round" stroke-linejoin="round" stroke-width="1"/>
        <line id="Line_311" data-name="Line 311" x2="14.642" transform="translate(197.02 120.77)" fill="none" stroke="#fff" stroke-linecap="round" stroke-linejoin="round" stroke-width="1"/>
        <line id="Line_312" data-name="Line 312" x2="14.642" transform="translate(197.02 127.801)" fill="none" stroke="#fff" stroke-linecap="round" stroke-linejoin="round" stroke-width="1"/>
        <path id="Path_69346" data-name="Path 69346" d="M252.2,148.622v-1.236c0-.062.074-.136.136-.185l1.458-1.1a.334.334,0,0,0,.124-.222v-4.5a1.019,1.019,0,0,0,0-.161L247,143.407v-1.582a.259.259,0,0,1,.148-.26q3.312-2.076,6.648-4.139a.346.346,0,0,0,.173-.334v-4.51a1.3,1.3,0,0,1,1.89-1.236,1.236,1.236,0,0,1,.717,1.236v4.485a.4.4,0,0,0,.21.383l6.573,4.1a.358.358,0,0,1,.2.334v1.532l-6.957-2.175v4.535a.358.358,0,0,0,.161.334c.494.358.976.729,1.458,1.1a.371.371,0,0,1,.124.247v1.149l-1.236-.358-1.606-.457a1.062,1.062,0,0,0-.4,0l-2.718.778Z" transform="translate(-230.69 -121.611)" fill="#fff"/>
        <circle id="Ellipse_5319" data-name="Ellipse 5319" cx="11.64" cy="11.64" r="11.64" transform="translate(12.863 6.709)" fill="none" stroke="#fff" stroke-linecap="round" stroke-linejoin="round" stroke-width="1"/>
      </g>
      <g id="freepik--Shadow--inject-4" transform="translate(125.741 486.977)">
        <ellipse id="Ellipse_5320" data-name="Ellipse 5320" cx="107.685" cy="15.594" rx="107.685" ry="15.594" fill="#9cd7f5"/>
        <ellipse id="Ellipse_5321" data-name="Ellipse 5321" cx="107.685" cy="15.594" rx="107.685" ry="15.594" fill="#fff" opacity="0.5"/>
      </g>
      <g id="freepik--Character--inject-4" transform="translate(163.194 221.681)">
        <path id="Path_69347" data-name="Path 69347" d="M240.726,360.23a1.236,1.236,0,0,1-1.236-1.236V287.526a1.236,1.236,0,1,1,2.471,0v71.468A1.236,1.236,0,0,1,240.726,360.23Z" transform="translate(-123.898 -174.433)" fill="#263238"/>
        <path id="Path_69348" data-name="Path 69348" d="M240.843,301.594a1.853,1.853,0,0,1-1.853-1.853v-12.1a1.853,1.853,0,0,1,3.707,0v12.1a1.853,1.853,0,0,1-1.853,1.853Z" transform="translate(-124.016 -174.551)" fill="#263238"/>
        <path id="Path_69349" data-name="Path 69349" d="M238.316,360.23a1.236,1.236,0,0,1-1.236-1.236V287.526a1.236,1.236,0,1,1,2.471,0v71.468A1.236,1.236,0,0,1,238.316,360.23Z" transform="translate(-124.466 -174.433)" fill="#263238"/>
        <path id="Path_69350" data-name="Path 69350" d="M238.433,301.594a1.853,1.853,0,0,1-1.853-1.853v-12.1a1.853,1.853,0,0,1,3.707,0v12.1A1.853,1.853,0,0,1,238.433,301.594Z" transform="translate(-124.584 -174.551)" fill="#263238"/>
        <path id="Path_69351" data-name="Path 69351" d="M241.058,285.79H238.08v3.62h2.953Z" transform="translate(-124.23 -174.551)" fill="#263238"/>
        <rect id="Rectangle_9357" data-name="Rectangle 9357" width="2.891" height="5.98" transform="translate(114.801 271.165)" fill="#263238" stroke="#263238" stroke-linecap="round" stroke-linejoin="round" stroke-width="1"/>
        <rect id="Rectangle_9358" data-name="Rectangle 9358" width="2.891" height="5.98" transform="translate(135.214 271.165)" fill="#263238" stroke="#263238" stroke-linecap="round" stroke-linejoin="round" stroke-width="1"/>
        <rect id="Rectangle_9359" data-name="Rectangle 9359" width="2.891" height="5.98" transform="translate(123.253 271.165)" fill="#263238" stroke="#263238" stroke-linecap="round" stroke-linejoin="round" stroke-width="1"/>
        <rect id="Rectangle_9360" data-name="Rectangle 9360" width="2.891" height="5.98" transform="translate(143.678 271.165)" fill="#263238" stroke="#263238" stroke-linecap="round" stroke-linejoin="round" stroke-width="1"/>
        <rect id="Rectangle_9361" data-name="Rectangle 9361" width="41.183" height="96.379" rx="5.33" transform="translate(110.044 174.935)" fill="#fff" stroke="#263238" stroke-linecap="round" stroke-linejoin="round" stroke-width="1"/>
        <rect id="Rectangle_9362" data-name="Rectangle 9362" width="16.891" height="96.379" rx="5.33" transform="translate(134.349 174.935)" fill="#263238" stroke="#263238" stroke-linecap="round" stroke-linejoin="round" stroke-width="1"/>
        <path id="Path_69352" data-name="Path 69352" d="M251.836,337.34a6.586,6.586,0,0,0-6.586,6.6V427.12a7.92,7.92,0,0,0,4.708,6.524" transform="translate(-122.541 -162.405)" fill="none" stroke="#263238" stroke-linecap="round" stroke-linejoin="round" stroke-width="1"/>
        <path id="Path_69353" data-name="Path 69353" d="M167.15,336.75s4.473,11.034,3.707,20.746-3.707,25.466-1.582,32.04,6.833,32.707,6.833,32.707-2.36,2.62-2.36,4.943.791,14.173.791,14.173h1.569l1.582-11.813a4.634,4.634,0,0,1,2.62,3.151c.259,2.1,1.05,8.143,2.1,8.4a19.217,19.217,0,0,0,3.942,0s1.569-1.05.791-1.841a6.611,6.611,0,0,1-2.1-3.929c-.531-2.372-1.841-5.783-1.841-10.243v-39.54c0-11.553,1.569-20.487,2.1-30.73a97.045,97.045,0,0,0-.531-17.3Z" transform="translate(-140.943 -162.544)" fill="#fff"/>
        <g id="Group_24617" data-name="Group 24617" transform="translate(26.207 174.206)" clip-path="url(#clip-path-2)">
          <path id="Path_69354" data-name="Path 69354" d="M167.56,337.85a61.9,61.9,0,0,1,2.162,7.611h15.544c-.111-3.818-.408-6.512-.544-7.611Z" transform="translate(-167.053 -336.491)" fill="#9cd7f5"/>
          <path id="Path_69355" data-name="Path 69355" d="M167.56,337.85a61.9,61.9,0,0,1,2.162,7.611h15.544c-.111-3.818-.408-6.512-.544-7.611Z" transform="translate(-167.053 -336.491)" fill="#fff" opacity="0.5"/>
        </g>
        <path id="Path_69357" data-name="Path 69357" d="M167.15,336.75s4.473,11.034,3.707,20.746-3.707,25.466-1.582,32.04,6.833,32.707,6.833,32.707-2.36,2.62-2.36,4.943.791,14.173.791,14.173h1.569l1.582-11.813a4.634,4.634,0,0,1,2.62,3.151c.259,2.1,1.05,8.143,2.1,8.4a19.217,19.217,0,0,0,3.942,0s1.569-1.05.791-1.841a6.611,6.611,0,0,1-2.1-3.929c-.531-2.372-1.841-5.783-1.841-10.243v-39.54c0-11.553,1.569-20.487,2.1-30.73a97.045,97.045,0,0,0-.531-17.3Z" transform="translate(-140.943 -162.544)" fill="none" stroke="#263238" stroke-linecap="round" stroke-linejoin="round" stroke-width="1"/>
        <path id="Path_69358" data-name="Path 69358" d="M180.815,423.714h-3.942s-1.236-.1-1.384-4.856a37.578,37.578,0,0,0-.939-7.611,4.4,4.4,0,0,1,4.263.976c2.15,1.816,2.669,9,2.928,9.885a4.5,4.5,0,0,0,.778,1.569Z" transform="translate(-139.199 -145.036)" fill="#fff" stroke="#263238" stroke-linecap="round" stroke-linejoin="round" stroke-width="1"/>
        <path id="Path_69359" data-name="Path 69359" d="M183.764,419.15a61.781,61.781,0,0,1-1.643-7.253,24.084,24.084,0,0,0-1.779-4.312c-1.829-3.151-5.511-1.569-5.511-1.569s-2.36,2.62-2.36,4.942.791,14.173.791,14.173h1.569l1.582-11.813a4.634,4.634,0,0,1,2.62,3.151c.259,2.1,1.05,8.143,2.1,8.4a19.217,19.217,0,0,0,3.942,0s1.569-1.05.791-1.841a6.611,6.611,0,0,1-2.1-3.88Z" transform="translate(-139.689 -146.317)" fill="#263238" stroke="#263238" stroke-linecap="round" stroke-linejoin="round" stroke-width="1"/>
        <path id="Path_69360" data-name="Path 69360" d="M195.131,338.175s2.471,7.636,2.026,11.232S185.024,364,183.677,370.523s-4.5,21.339-5.61,27.629-2.051,10-3.954,11.689-5.4.136-8.044,3.138-10.379,12.233-10.379,12.233l1.075.951,9.082-5.548s4.189,1.594,4.275,4.065a65.948,65.948,0,0,0,1.433,10.206c.556,2.063,4.374,6.1,6.821,6.7s2.385-2.471,1.409-3.052-2.372-3.707-2.15-7.562,1.767-15.2,3.274-17.818,14.9-30.891,21.858-39.935,9.205-17.3,10.787-19.548,1.569-7.636,1.569-10.552a34.046,34.046,0,0,0-.445-5.387Z" transform="translate(-143.643 -162.313)" fill="#fff"/>
        <g id="Group_24618" data-name="Group 24618" transform="translate(12.047 175.417)" clip-path="url(#clip-path-3)">
          <path id="Path_69361" data-name="Path 69361" d="M187.61,338.147a56.234,56.234,0,0,1,1.792,7.315h18.176v-2.372a35.152,35.152,0,0,0-.42-5.239h-6.574Z" transform="translate(-148.169 -337.702)" fill="#9cd7f5"/>
          <path id="Path_69362" data-name="Path 69362" d="M187.61,338.147a56.234,56.234,0,0,1,1.792,7.315h18.176v-2.372a35.152,35.152,0,0,0-.42-5.239h-6.574Z" transform="translate(-148.169 -337.702)" fill="#fff" opacity="0.5"/>
        </g>
        <path id="Path_69364" data-name="Path 69364" d="M195.131,338.175s2.471,7.636,2.026,11.232S185.024,364,183.677,370.523s-4.5,21.339-5.61,27.629-2.051,10-3.954,11.689-5.4.136-8.044,3.138-10.379,12.233-10.379,12.233l1.075.951,9.082-5.548s4.189,1.594,4.275,4.065a65.948,65.948,0,0,0,1.433,10.206c.556,2.063,4.374,6.1,6.821,6.7s2.385-2.471,1.409-3.052-2.372-3.707-2.15-7.562,1.767-15.2,3.274-17.818,14.9-30.891,21.858-39.935,9.205-17.3,10.787-19.548,1.569-7.636,1.569-10.552a34.046,34.046,0,0,0-.445-5.387Z" transform="translate(-143.643 -162.313)" fill="none" stroke="#263238" stroke-linecap="round" stroke-linejoin="round" stroke-width="1"/>
        <path id="Path_69365" data-name="Path 69365" d="M163.91,405.322s1.952,5.288,1.792,7.982-1.384,4.634-.161,6.734,3.311,5.14,10.9,6.252c0,0-3.892-6.747-4.078-11.257s-.914-11.528-3.138-12.109S164.083,402.406,163.91,405.322Z" transform="translate(-141.706 -147.02)" fill="#fff" stroke="#263238" stroke-linecap="round" stroke-linejoin="round" stroke-width="1"/>
        <path id="Path_69366" data-name="Path 69366" d="M179.778,424.541c-.976-.531-2.372-3.707-2.15-7.562-2.941-3.769-1.236-9.3-3.262-13.691a14.05,14.05,0,0,0-5.054-6.178h0a5.771,5.771,0,0,0-3.213,1.866c-2.657,2.99-10.379,12.233-10.379,12.233l1.075.951,9.082-5.548s4.189,1.594,4.275,4.065a65.947,65.947,0,0,0,1.433,10.206c.556,2.064,4.374,6.1,6.821,6.7S180.778,425.06,179.778,424.541Z" transform="translate(-143.636 -148.322)" fill="#263238" stroke="#263238" stroke-linecap="round" stroke-linejoin="round" stroke-width="1"/>
        <path id="Path_69367" data-name="Path 69367" d="M164.277,233.68a35.734,35.734,0,0,0-4.942,9.453c-1.569,4.942-15.495,43.593-13.122,45.953s26.257,9.971,26.257,9.971l3.942-10.762-13.925-6.561,8.649-27.839S173.47,237.35,164.277,233.68Z" transform="translate(-145.94 -186.83)" fill="#9cd7f5" stroke="#263238" stroke-linecap="round" stroke-linejoin="round" stroke-width="1"/>
        <path id="Path_69368" data-name="Path 69368" d="M150.65,279.272c5.6-.68,10.676-6.672,10.676-6.672a12.974,12.974,0,0,1-2.545,8.081" transform="translate(-144.831 -177.659)" fill="none" stroke="#263238" stroke-linecap="round" stroke-linejoin="round" stroke-width="1"/>
        <path id="Path_69369" data-name="Path 69369" d="M164.746,259.172s-2.125-1.767-6.376-10.972" transform="translate(-143.012 -183.408)" fill="none" stroke="#263238" stroke-linecap="round" stroke-linejoin="round" stroke-width="1"/>
        <path id="Path_69370" data-name="Path 69370" d="M165.464,259.657A124.937,124.937,0,0,1,153.8,253.64" transform="translate(-144.089 -182.127)" fill="none" stroke="#263238" stroke-linecap="round" stroke-linejoin="round" stroke-width="1"/>
        <path id="Path_69371" data-name="Path 69371" d="M172.02,279.16s-6.3,10.5-10.5,31.508a170.518,170.518,0,0,0-2.36,42.271s24.156,5.264,66.958,0c0,0-4.2-53.033-19.955-73.779Z" transform="translate(-142.921 -176.114)" fill="#9cd7f5" stroke="#263238" stroke-linecap="round" stroke-linejoin="round" stroke-width="1"/>
        <path id="Path_69372" data-name="Path 69372" d="M158.76,330.71c0,6.178.4,10.083.4,10.083s24.156,5.264,66.958,0c0,0-.309-3.929-1.075-10.07C189.082,334.417,166,331.785,158.76,330.71Z" transform="translate(-142.92 -163.967)" fill="#263238" stroke="#263238" stroke-linecap="round" stroke-linejoin="round" stroke-width="1"/>
        <path id="Path_69373" data-name="Path 69373" d="M174.881,230.307s-11.813,2.891-13.913,4.732-1.05,11.553.26,17.855,10.5,38.3,10.5,38.3h34.14s7.883-51.476,7.611-55.937-21.265-7.352-21.265-7.352Z" transform="translate(-142.681 -188.189)" fill="#9cd7f5" stroke="#263238" stroke-linecap="round" stroke-linejoin="round" stroke-width="1"/>
        <path id="Path_69374" data-name="Path 69374" d="M167.62,272.57l2.311,8.143h34.14s.494-3.237,1.236-8.143Z" transform="translate(-140.832 -177.666)" fill="#263238" stroke="#263238" stroke-linecap="round" stroke-linejoin="round" stroke-width="1"/>
        <path id="Path_69375" data-name="Path 69375" d="M228.317,280.9a14.963,14.963,0,0,0,4.251,1.162c1.545,0,6.771-2.323,8.9-1.94s6.376,7.154,6.957,8.118-2.236,1.841-3.287,2.706c-1.755,1.458-3.324.124-3.089-.581l.383-1.545s-1.73-1.063-2.9,0a7.884,7.884,0,0,1-5.214,1.928c-2.323,0-7.34-3.472-7.34-3.472Z" transform="translate(-126.848 -175.898)" fill="#fff" stroke="#263238" stroke-linecap="round" stroke-linejoin="round" stroke-width="1"/>
        <path id="Path_69376" data-name="Path 69376" d="M195.42,265.152s1.05,20.487,2.36,22.587,15.754,8.649,22.847,10.762a93.286,93.286,0,0,0,14.444,2.891l2.1-9.452s-18.114-9.984-21.8-12.356-6.042-4.2-6.042-4.2-1.05-27.839-1.31-33.09-.259-7.871-2.62-9.193a43.9,43.9,0,0,0-7.883-2.62" transform="translate(-134.282 -187.584)" fill="#9cd7f5" stroke="#263238" stroke-linecap="round" stroke-linejoin="round" stroke-width="1"/>
        <path id="Path_69377" data-name="Path 69377" d="M202.535,274.234c3.892-2.125,6.289-7.414,6.289-7.414s-6.289,3.509-11.244,1.384" transform="translate(-133.773 -179.021)" fill="none" stroke="#263238" stroke-linecap="round" stroke-linejoin="round" stroke-width="1"/>
        <path id="Path_69378" data-name="Path 69378" d="M181.781,197.971a13.962,13.962,0,0,0-9.712,10.243c-2.372,8.649-.531,17.3-.531,20.474s-1.841,17.076-3.707,27.048-4.461,21.277-4.461,21.277,7.624,1.829,11.294,2.36l7.611,1.05,1.322-6.3,1.05,6.561a58.331,58.331,0,0,0,7.611,0,25.837,25.837,0,0,0,8.934-2.36l.259-3.41,2.62,2.879a30.367,30.367,0,0,0,4.473-1.569c2.36-1.05,6.03-3.151,6.03-3.151s-12.6-31.508-14.173-38.082,1.31-10.231,2.36-18.374-4.461-19.955-8.649-20.746a7.525,7.525,0,0,0-6.833,2.36A6.351,6.351,0,0,0,181.781,197.971Z" transform="translate(-141.834 -195.764)" fill="#263238" stroke="#263238" stroke-linecap="round" stroke-linejoin="round" stroke-width="1"/>
      </g>
    </g>
  </g>
</svg>
