<?xml version="1.0" encoding="iso-8859-1"?>
<!-- Uploaded to: SVG Repo, www.svgrepo.com, Generator: SVG Repo Mixer Tools -->
<svg version="1.1" id="Layer_1" xmlns="http://www.w3.org/2000/svg" xmlns:xlink="http://www.w3.org/1999/xlink" 
	 viewBox="0 0 508 508" xml:space="preserve">
<rect x="32" y="57" style="fill:#F4EFEF;" width="444" height="328"/>
<g>
	<circle style="fill:#4BB19B;" cx="135.2" cy="249" r="14"/>
	<circle style="fill:#4BB19B;" cx="235.6" cy="292.2" r="14"/>
	<circle style="fill:#4BB19B;" cx="339.6" cy="171.4" r="14"/>
</g>
<rect x="16" y="25" style="fill:#33A5D2;" width="476" height="32"/>
<path d="M135.2,267c-10,0-18-8-18-18s8-18,18-18s18,8,18,18S145.2,267,135.2,267z M135.2,239.4c-5.6,0-10,4.4-10,10s4.4,10,10,10
	s10-4.4,10-10S140.8,239.4,135.2,239.4z"/>
<path d="M235.6,310.2c-10,0-18-8-18-18s8-18,18-18s18,8,18,18S245.2,310.2,235.6,310.2z M235.6,282.2c-5.6,0-10,4.4-10,10
	s4.4,10,10,10s10-4.4,10-10S240.8,282.2,235.6,282.2z"/>
<path d="M339.6,189.4c-10,0-18-8-18-18s8-18,18-18s18,8,18,18S349.6,189.4,339.6,189.4z M339.6,161.8c-5.6,0-10,4.4-10,10
	s4.4,10,10,10s10-4.4,10-10S344.8,161.8,339.6,161.8z"/>
<path d="M245.6,286.2c-0.8,0-2-0.4-2.8-0.8c-1.6-1.6-2-4-0.4-5.6l76-88c1.6-1.6,4-2,5.6-0.4s2,4,0.4,5.6l-76,88
	C247.6,285.4,246.4,286.2,245.6,286.2z"/>
<path d="M207.6,285.4c-0.8,0-1.2,0-1.6-0.4l-56-28.4c-2-0.8-2.8-3.2-1.6-5.2c0.8-2,3.6-2.8,5.2-1.6l56,28.4c2,0.8,2.8,3.2,1.6,5.2
	C210.4,284.6,209.2,285.4,207.6,285.4z"/>
<path d="M37.2,384.6c-0.8,0-1.6-0.4-2.4-0.8c-1.6-1.2-2-4-0.8-5.6l80.4-110.4c1.2-1.6,4-2,5.6-0.8s2,4,0.8,5.6L40.4,383
	C39.6,384.2,38.4,384.6,37.2,384.6z"/>
<path d="M353.6,168.2c-1.2,0-2.4-0.4-3.2-1.6c-1.6-1.6-1.2-4.4,0.4-5.6l124-102.4c1.6-1.6,4.4-1.2,5.6,0.4s1.2,4.4-0.4,5.6L356,167
	C355.2,168.2,354.4,168.2,353.6,168.2z"/>
<path d="M474,391H30c-2.4,0-4-1.6-4-4V61c0-2.4,1.6-4,4-4s4,1.6,4,4v322h436V61c0-2.4,1.6-4,4-4s4,1.6,4,4v326
	C478,389.4,476.4,391,474,391z"/>
<path d="M490,63h-34c-2.4,0-4-1.6-4-4s1.6-4,4-4h30V31H18v24h402c2.4,0,4,1.6,4,4s-1.6,4-4,4H14c-2.4,0-4-1.6-4-4V27
	c0-2.4,1.6-4,4-4h476c2.4,0,4,1.6,4,4v32C494,61.4,492.4,63,490,63z"/>
<path d="M504,31H4c-2.4,0-4-1.6-4-4s1.6-4,4-4h500c2.4,0,4,1.6,4,4S506.4,31,504,31z"/>
<path d="M250,25c-2.4,0-4-1.6-4-4V5c0-2.4,1.6-4,4-4s4,1.6,4,4v16C254,23.4,252.4,25,250,25z"/>
<path d="M250,505c-2.4,0-4-1.6-4-4V389c0-2.4,1.6-4,4-4s4,1.6,4,4v112C254,503.4,252.4,505,250,505z"/>
<path d="M368,507H136c-2.4,0-4-1.6-4-4s1.6-4,4-4h232c2.4,0,4,1.6,4,4S370.4,507,368,507z"/>
</svg>